<svg width="128" height="128" viewBox="0 0 128 128" fill="none" xmlns="http://www.w3.org/2000/svg">
<path d="M64.0002 56.8002C69.1364 56.8002 73.3002 52.6364 73.3002 47.5002C73.3002 42.3639 69.1364 38.2002 64.0002 38.2002C58.8639 38.2002 54.7002 42.3639 54.7002 47.5002C54.7002 52.6364 58.8639 56.8002 64.0002 56.8002Z" fill="#0C70DB"/>
<path d="M64.0001 81.7001C71.3001 88.8001 78.5001 93.0001 84.3001 93.0001C86.2001 93.0001 88.0001 92.6001 89.5001 91.7001C94.7001 88.7001 96.6001 81.2001 94.8001 70.5001C94.5001 68.6001 94.1001 66.7001 93.6001 64.7001C95.6001 64.1001 97.4001 63.5001 99.2001 62.9001C109.3 59.0001 114.9 53.6001 114.9 47.7001C114.9 41.7001 109.3 36.3001 99.2001 32.5001C97.4001 31.8001 95.6001 31.2001 93.6001 30.7001C94.1001 28.7001 94.5001 26.8001 94.8001 24.9001C96.5001 14.0001 94.6001 6.4001 89.4001 3.4001C87.9001 2.5001 86.1001 2.1001 84.2001 2.1001C78.5001 2.1001 71.2001 6.3001 63.9001 13.4001C56.7001 6.3001 49.5001 2.1001 43.7001 2.1001C41.8001 2.1001 40.0001 2.5001 38.5001 3.4001C33.3001 6.4001 31.4001 13.9001 33.2001 24.6001C33.5001 26.5001 33.9001 28.4001 34.4001 30.4001C32.4001 31.0001 30.6001 31.6001 28.8001 32.2001C18.7001 36.1001 13.1001 41.5001 13.1001 47.4001C13.1001 53.4001 18.7001 58.8001 28.8001 62.6001C30.6001 63.3001 32.4001 63.9001 34.4001 64.4001C33.9001 66.4001 33.5001 68.3001 33.2001 70.2001C31.5001 80.9001 33.4001 88.5001 38.5001 91.4001C40.0001 92.3001 41.8001 92.7001 43.7001 92.7001C49.5001 92.9001 56.7001 88.7001 64.0001 81.7001ZM58.4001 68.2001C60.2001 68.3001 62.1001 68.3001 64.0001 68.3001C65.9001 68.3001 67.8001 68.3001 69.6001 68.2001C67.8001 70.6001 65.9001 72.8001 64.0001 74.9001C62.1001 72.8001 60.2001 70.6001 58.4001 68.2001ZM46.0001 57.9001C47.0001 59.6001 47.9001 61.2001 49.0001 62.8001C45.9001 62.4001 43.0001 61.9001 40.2001 61.3001C41.1001 58.6001 42.1001 55.8001 43.3001 53.0001C44.1001 54.6001 45.0001 56.3001 46.0001 57.9001ZM40.2001 33.8001C43.0001 33.2001 45.9001 32.7001 49.0001 32.3001C48.0001 33.9001 47.0001 35.5001 46.0001 37.2001C45.0001 38.9001 44.1001 40.5001 43.3001 42.2001C42.0001 39.3001 41.0001 36.5001 40.2001 33.8001ZM45.7001 47.5001C47.0001 44.8001 48.4001 42.1001 50.0001 39.4001C51.5001 36.8001 53.2001 34.2001 54.9001 31.6001C57.9001 31.4001 60.9001 31.3001 64.0001 31.3001C67.2001 31.3001 70.2001 31.4001 73.1001 31.6001C74.9001 34.2001 76.5001 36.8001 78.0001 39.4001C79.6001 42.1001 81.0001 44.8001 82.3001 47.5001C81.0001 50.2001 79.6001 52.9001 78.0001 55.6001C76.5001 58.2001 74.8001 60.8001 73.1001 63.4001C70.1001 63.6001 67.1001 63.7001 64.0001 63.7001C60.8001 63.7001 57.8001 63.6001 54.9001 63.4001C53.1001 60.8001 51.5001 58.2001 50.0001 55.6001C48.4001 52.9001 47.0001 50.2001 45.7001 47.5001ZM84.8001 42.1001L82.1001 37.1001C81.1001 35.4001 80.2001 33.8001 79.1001 32.2001C82.2001 32.6001 85.1001 33.1001 87.9001 33.7001C87.0001 36.5001 86.0001 39.3001 84.8001 42.1001ZM84.8001 52.9001C86.0001 55.7001 87.0001 58.5001 87.9001 61.2001C85.1001 61.8001 82.2001 62.3001 79.1001 62.7001C80.1001 61.1001 81.1001 59.5001 82.1001 57.8001C83.0001 56.3001 83.9001 54.6001 84.8001 52.9001ZM87.1001 87.6001C86.3001 88.1001 85.3001 88.3001 84.2001 88.3001C79.3001 88.3001 73.2001 84.3001 67.2001 78.3001C70.1001 75.2001 72.9001 71.7001 75.7001 67.8001C80.4001 67.4001 84.9001 66.7001 89.1001 65.7001C89.6001 67.5001 89.9001 69.3001 90.2001 71.1001C91.6001 79.6001 90.5001 85.7001 87.1001 87.6001ZM92.3001 34.9001C103.5 38.1001 110.2 43.0001 110.2 47.5001C110.2 51.4001 105.6 55.3001 97.5001 58.4001C95.9001 59.0001 94.1001 59.6001 92.3001 60.1001C91.0001 56.0001 89.4001 51.8001 87.4001 47.5001C89.4001 43.2001 91.1001 39.0001 92.3001 34.9001ZM84.3001 6.7001C85.4001 6.7001 86.3001 6.9001 87.2001 7.4001C90.5001 9.3001 91.7001 15.3001 90.3001 23.9001C90.0001 25.6001 89.6001 27.4001 89.2001 29.3001C85.0001 28.4001 80.5001 27.7001 75.8001 27.2001C73.1001 23.3001 70.2001 19.8001 67.3001 16.7001C73.3001 10.8001 79.4001 6.7001 84.3001 6.7001ZM69.6001 26.8001C67.8001 26.7001 65.9001 26.7001 64.0001 26.7001C62.1001 26.7001 60.2001 26.7001 58.4001 26.8001C60.2001 24.4001 62.1001 22.2001 64.0001 20.1001C65.9001 22.2001 67.8001 24.5001 69.6001 26.8001ZM40.9001 7.4001C41.7001 6.9001 42.7001 6.7001 43.8001 6.7001C48.7001 6.7001 54.8001 10.7001 60.8001 16.7001C57.9001 19.8001 55.1001 23.3001 52.3001 27.2001C47.6001 27.6001 43.1001 28.3001 38.9001 29.3001C38.4001 27.5001 38.1001 25.7001 37.8001 23.9001C36.4001 15.4001 37.5001 9.4001 40.9001 7.4001ZM35.7001 60.1001C24.5001 56.9001 17.8001 52.0001 17.8001 47.5001C17.8001 43.6001 22.4001 39.7001 30.5001 36.6001C32.1001 36.0001 33.9001 35.4001 35.7001 34.9001C37.0001 39.0001 38.6001 43.2001 40.6001 47.5001C38.6001 51.8001 36.9001 56.1001 35.7001 60.1001ZM37.8001 71.1001C38.1001 69.4001 38.5001 67.6001 38.9001 65.7001C43.1001 66.6001 47.6001 67.3001 52.3001 67.8001C55.0001 71.7001 57.9001 75.2001 60.8001 78.3001C54.8001 84.2001 48.7001 88.3001 43.8001 88.3001C42.7001 88.3001 41.8001 88.1001 40.9001 87.6001C37.5001 85.7001 36.4001 79.6001 37.8001 71.1001Z" fill="#0B7CF5"/>
<path d="M1.10085 123V108.455H7.10938C8.19839 108.455 9.13826 108.651 9.92898 109.044C10.7244 109.432 11.3376 109.991 11.7685 110.72C12.1993 111.445 12.4148 112.304 12.4148 113.298C12.4148 114.307 12.1946 115.164 11.7543 115.869C11.3139 116.57 10.6889 117.105 9.87926 117.474C9.0696 117.839 8.1108 118.021 7.00284 118.021H3.20312V115.251H6.34943C6.87974 115.251 7.32244 115.183 7.67756 115.045C8.03741 114.903 8.30966 114.69 8.49432 114.406C8.67898 114.117 8.77131 113.748 8.77131 113.298C8.77131 112.848 8.67898 112.477 8.49432 112.183C8.30966 111.885 8.03741 111.662 7.67756 111.516C7.31771 111.364 6.875 111.288 6.34943 111.288H4.61648V123H1.10085ZM9.28977 116.352L12.9119 123H9.0767L5.52557 116.352H9.28977ZM19.2276 123.206C18.0865 123.206 17.1017 122.981 16.2731 122.531C15.4492 122.077 14.8147 121.43 14.3697 120.592C13.9293 119.75 13.7092 118.748 13.7092 117.588C13.7092 116.461 13.9317 115.476 14.3768 114.634C14.8219 113.786 15.4492 113.128 16.2589 112.659C17.0685 112.186 18.0226 111.949 19.1211 111.949C19.8976 111.949 20.6078 112.07 21.2518 112.311C21.8957 112.553 22.4521 112.91 22.9208 113.384C23.3896 113.857 23.7541 114.442 24.0146 115.138C24.275 115.829 24.4052 116.622 24.4052 117.517V118.384H14.9237V116.366H21.1737C21.1689 115.997 21.0813 115.668 20.9109 115.379C20.7404 115.09 20.506 114.866 20.2077 114.705C19.9142 114.539 19.5756 114.456 19.1921 114.456C18.8039 114.456 18.4558 114.544 18.1481 114.719C17.8403 114.889 17.5965 115.124 17.4165 115.422C17.2366 115.715 17.1419 116.049 17.1325 116.423V118.476C17.1325 118.921 17.2201 119.312 17.3952 119.648C17.5704 119.979 17.819 120.237 18.141 120.422C18.4629 120.607 18.8465 120.699 19.2915 120.699C19.5993 120.699 19.8787 120.656 20.1296 120.571C20.3806 120.486 20.596 120.36 20.7759 120.195C20.9558 120.029 21.0908 119.825 21.1808 119.584L24.3697 119.676C24.2371 120.391 23.9459 121.014 23.4961 121.544C23.051 122.07 22.4663 122.479 21.7418 122.773C21.0174 123.062 20.1793 123.206 19.2276 123.206ZM29.2543 123.185C28.5582 123.185 27.9403 123.069 27.4006 122.837C26.8655 122.6 26.4418 122.245 26.1293 121.771C25.8215 121.293 25.6676 120.694 25.6676 119.974C25.6676 119.368 25.7741 118.857 25.9872 118.44C26.2003 118.024 26.4938 117.685 26.8679 117.425C27.242 117.164 27.6728 116.968 28.1605 116.835C28.6482 116.698 29.169 116.606 29.723 116.558C30.3433 116.501 30.8428 116.442 31.2216 116.381C31.6004 116.314 31.875 116.222 32.0455 116.104C32.2206 115.981 32.3082 115.808 32.3082 115.585V115.55C32.3082 115.185 32.1828 114.903 31.9318 114.705C31.6809 114.506 31.3423 114.406 30.9162 114.406C30.4569 114.406 30.0876 114.506 29.8082 114.705C29.5289 114.903 29.3513 115.178 29.2756 115.528L26.0724 115.415C26.1671 114.752 26.411 114.16 26.804 113.639C27.2017 113.114 27.7462 112.702 28.4375 112.403C29.1335 112.1 29.9692 111.949 30.9446 111.949C31.6406 111.949 32.2822 112.032 32.8693 112.197C33.4564 112.358 33.9678 112.595 34.4034 112.908C34.839 113.215 35.1752 113.594 35.4119 114.044C35.6534 114.494 35.7741 115.008 35.7741 115.585V123H32.5071V121.48H32.4219C32.2277 121.849 31.9792 122.162 31.6761 122.418C31.3778 122.673 31.0251 122.865 30.6179 122.993C30.2154 123.121 29.7609 123.185 29.2543 123.185ZM30.3267 120.912C30.7008 120.912 31.0369 120.836 31.3352 120.685C31.6383 120.533 31.8797 120.325 32.0597 120.06C32.2396 119.79 32.3295 119.477 32.3295 119.122V118.085C32.2301 118.137 32.1094 118.185 31.9673 118.227C31.83 118.27 31.6785 118.31 31.5128 118.348C31.3471 118.386 31.1766 118.419 31.0014 118.447C30.8262 118.476 30.6581 118.502 30.4972 118.526C30.1705 118.578 29.8911 118.658 29.6591 118.767C29.4318 118.876 29.2566 119.018 29.1335 119.193C29.0152 119.364 28.956 119.567 28.956 119.804C28.956 120.164 29.0838 120.438 29.3395 120.628C29.5999 120.817 29.929 120.912 30.3267 120.912ZM42.9901 123.206C41.8395 123.206 40.8523 122.969 40.0284 122.496C39.2093 122.022 38.5795 121.364 38.1392 120.521C37.6989 119.674 37.4787 118.694 37.4787 117.581C37.4787 116.464 37.6989 115.483 38.1392 114.641C38.5843 113.793 39.2164 113.133 40.0355 112.659C40.8594 112.186 41.8419 111.949 42.983 111.949C43.9915 111.949 44.8698 112.131 45.6179 112.496C46.3707 112.86 46.9579 113.376 47.3793 114.044C47.8054 114.707 48.0303 115.486 48.054 116.381H44.8082C44.742 115.822 44.5526 115.384 44.2401 115.067C43.9323 114.75 43.5298 114.591 43.0327 114.591C42.6302 114.591 42.2775 114.705 41.9744 114.932C41.6714 115.154 41.4347 115.486 41.2642 115.926C41.0985 116.362 41.0156 116.902 41.0156 117.545C41.0156 118.189 41.0985 118.734 41.2642 119.179C41.4347 119.619 41.6714 119.953 41.9744 120.18C42.2775 120.403 42.6302 120.514 43.0327 120.514C43.3546 120.514 43.6387 120.446 43.8849 120.308C44.1359 120.171 44.3419 119.97 44.5028 119.705C44.6638 119.435 44.7656 119.108 44.8082 118.724H48.054C48.0208 119.624 47.7959 120.41 47.3793 121.082C46.9673 121.755 46.3873 122.278 45.6392 122.652C44.8958 123.021 44.0128 123.206 42.9901 123.206ZM55.989 112.091V114.648H49.1069V112.091H55.989ZM50.5487 109.477H54.0217V119.57C54.0217 119.783 54.0548 119.955 54.1211 120.088C54.1921 120.216 54.2939 120.308 54.4265 120.365C54.5591 120.417 54.7177 120.443 54.9023 120.443C55.0349 120.443 55.1746 120.431 55.3214 120.408C55.4729 120.379 55.5865 120.356 55.6623 120.337L56.1879 122.844C56.0221 122.891 55.7878 122.95 55.4847 123.021C55.1864 123.092 54.829 123.137 54.4123 123.156C53.5979 123.194 52.8995 123.099 52.3171 122.872C51.7395 122.64 51.2968 122.28 50.989 121.793C50.686 121.305 50.5392 120.692 50.5487 119.953V109.477ZM74.4371 108.455V123H71.4542L65.6658 114.605H65.5735V123H62.0579V108.455H65.0835L70.8079 116.835H70.9286V108.455H74.4371ZM79.723 123.185C79.027 123.185 78.4091 123.069 77.8693 122.837C77.3343 122.6 76.9105 122.245 76.598 121.771C76.2902 121.293 76.1364 120.694 76.1364 119.974C76.1364 119.368 76.2429 118.857 76.456 118.44C76.669 118.024 76.9626 117.685 77.3366 117.425C77.7107 117.164 78.1416 116.968 78.6293 116.835C79.117 116.698 79.6378 116.606 80.1918 116.558C80.812 116.501 81.3116 116.442 81.6903 116.381C82.0691 116.314 82.3438 116.222 82.5142 116.104C82.6894 115.981 82.777 115.808 82.777 115.585V115.55C82.777 115.185 82.6515 114.903 82.4006 114.705C82.1496 114.506 81.8111 114.406 81.3849 114.406C80.9257 114.406 80.5563 114.506 80.277 114.705C79.9976 114.903 79.8201 115.178 79.7443 115.528L76.5412 115.415C76.6359 114.752 76.8797 114.16 77.2727 113.639C77.6705 113.114 78.215 112.702 78.9062 112.403C79.6023 112.1 80.438 111.949 81.4134 111.949C82.1094 111.949 82.7509 112.032 83.3381 112.197C83.9252 112.358 84.4366 112.595 84.8722 112.908C85.3078 113.215 85.6439 113.594 85.8807 114.044C86.1222 114.494 86.2429 115.008 86.2429 115.585V123H82.9759V121.48H82.8906C82.6965 121.849 82.4479 122.162 82.1449 122.418C81.8466 122.673 81.4938 122.865 81.0866 122.993C80.6842 123.121 80.2296 123.185 79.723 123.185ZM80.7955 120.912C81.1695 120.912 81.5057 120.836 81.804 120.685C82.107 120.533 82.3485 120.325 82.5284 120.06C82.7083 119.79 82.7983 119.477 82.7983 119.122V118.085C82.6989 118.137 82.5781 118.185 82.4361 118.227C82.2988 118.27 82.1473 118.31 81.9815 118.348C81.8158 118.386 81.6454 118.419 81.4702 118.447C81.295 118.476 81.1269 118.502 80.9659 118.526C80.6392 118.578 80.3598 118.658 80.1278 118.767C79.9006 118.876 79.7254 119.018 79.6023 119.193C79.4839 119.364 79.4247 119.567 79.4247 119.804C79.4247 120.164 79.5526 120.438 79.8082 120.628C80.0687 120.817 80.3977 120.912 80.7955 120.912ZM94.5241 112.091V114.648H87.642V112.091H94.5241ZM89.0838 109.477H92.5568V119.57C92.5568 119.783 92.59 119.955 92.6562 120.088C92.7273 120.216 92.8291 120.308 92.9616 120.365C93.0942 120.417 93.2528 120.443 93.4375 120.443C93.5701 120.443 93.7098 120.431 93.8565 120.408C94.008 120.379 94.1217 120.356 94.1974 120.337L94.723 122.844C94.5573 122.891 94.3229 122.95 94.0199 123.021C93.7216 123.092 93.3641 123.137 92.9474 123.156C92.133 123.194 91.4347 123.099 90.8523 122.872C90.2746 122.64 89.8319 122.28 89.5241 121.793C89.2211 121.305 89.0743 120.692 89.0838 119.953V109.477ZM96.2962 123V112.091H99.7692V123H96.2962ZM98.0362 110.82C97.5485 110.82 97.1295 110.659 96.7791 110.337C96.4287 110.01 96.2536 109.617 96.2536 109.158C96.2536 108.703 96.4287 108.315 96.7791 107.993C97.1295 107.666 97.5485 107.503 98.0362 107.503C98.5286 107.503 98.9477 107.666 99.2933 107.993C99.6437 108.315 99.8189 108.703 99.8189 109.158C99.8189 109.617 99.6437 110.01 99.2933 110.337C98.9477 110.659 98.5286 110.82 98.0362 110.82ZM112.562 112.091L108.819 123H104.842L101.106 112.091H104.764L106.774 119.605H106.887L108.904 112.091H112.562ZM118.642 123.206C117.501 123.206 116.516 122.981 115.687 122.531C114.863 122.077 114.229 121.43 113.784 120.592C113.343 119.75 113.123 118.748 113.123 117.588C113.123 116.461 113.346 115.476 113.791 114.634C114.236 113.786 114.863 113.128 115.673 112.659C116.483 112.186 117.437 111.949 118.535 111.949C119.312 111.949 120.022 112.07 120.666 112.311C121.31 112.553 121.866 112.91 122.335 113.384C122.804 113.857 123.168 114.442 123.429 115.138C123.689 115.829 123.819 116.622 123.819 117.517V118.384H114.338V116.366H120.588C120.583 115.997 120.495 115.668 120.325 115.379C120.154 115.09 119.92 114.866 119.622 114.705C119.328 114.539 118.99 114.456 118.606 114.456C118.218 114.456 117.87 114.544 117.562 114.719C117.254 114.889 117.011 115.124 116.831 115.422C116.651 115.715 116.556 116.049 116.547 116.423V118.476C116.547 118.921 116.634 119.312 116.809 119.648C116.984 119.979 117.233 120.237 117.555 120.422C117.877 120.607 118.261 120.699 118.706 120.699C119.013 120.699 119.293 120.656 119.544 120.571C119.795 120.486 120.01 120.36 120.19 120.195C120.37 120.029 120.505 119.825 120.595 119.584L123.784 119.676C123.651 120.391 123.36 121.014 122.91 121.544C122.465 122.07 121.88 122.479 121.156 122.773C120.431 123.062 119.593 123.206 118.642 123.206Z" fill="#0B7CF5"/>
</svg>
