<svg width="128" height="128" viewBox="0 0 128 128" fill="none" xmlns="http://www.w3.org/2000/svg">
<path d="M64.0002 56.8002C69.1364 56.8002 73.3002 52.6364 73.3002 47.5002C73.3002 42.3639 69.1364 38.2002 64.0002 38.2002C58.8639 38.2002 54.7002 42.3639 54.7002 47.5002C54.7002 52.6364 58.8639 56.8002 64.0002 56.8002Z" fill="#61DAFB"/>
<path d="M64.0001 81.7001C71.3001 88.8001 78.5001 93.0001 84.3001 93.0001C86.2001 93.0001 88.0001 92.6001 89.5001 91.7001C94.7001 88.7001 96.6001 81.2001 94.8001 70.5001C94.5001 68.6001 94.1001 66.7001 93.6001 64.7001C95.6001 64.1001 97.4001 63.5001 99.2001 62.9001C109.3 59.0001 114.9 53.6001 114.9 47.7001C114.9 41.7001 109.3 36.3001 99.2001 32.5001C97.4001 31.8001 95.6001 31.2001 93.6001 30.7001C94.1001 28.7001 94.5001 26.8001 94.8001 24.9001C96.5001 14.0001 94.6001 6.4001 89.4001 3.4001C87.9001 2.5001 86.1001 2.1001 84.2001 2.1001C78.5001 2.1001 71.2001 6.3001 63.9001 13.4001C56.7001 6.3001 49.5001 2.1001 43.7001 2.1001C41.8001 2.1001 40.0001 2.5001 38.5001 3.4001C33.3001 6.4001 31.4001 13.9001 33.2001 24.6001C33.5001 26.5001 33.9001 28.4001 34.4001 30.4001C32.4001 31.0001 30.6001 31.6001 28.8001 32.2001C18.7001 36.1001 13.1001 41.5001 13.1001 47.4001C13.1001 53.4001 18.7001 58.8001 28.8001 62.6001C30.6001 63.3001 32.4001 63.9001 34.4001 64.4001C33.9001 66.4001 33.5001 68.3001 33.2001 70.2001C31.5001 80.9001 33.4001 88.5001 38.5001 91.4001C40.0001 92.3001 41.8001 92.7001 43.7001 92.7001C49.5001 92.9001 56.7001 88.7001 64.0001 81.7001ZM58.4001 68.2001C60.2001 68.3001 62.1001 68.3001 64.0001 68.3001C65.9001 68.3001 67.8001 68.3001 69.6001 68.2001C67.8001 70.6001 65.9001 72.8001 64.0001 74.9001C62.1001 72.8001 60.2001 70.6001 58.4001 68.2001ZM46.0001 57.9001C47.0001 59.6001 47.9001 61.2001 49.0001 62.8001C45.9001 62.4001 43.0001 61.9001 40.2001 61.3001C41.1001 58.6001 42.1001 55.8001 43.3001 53.0001C44.1001 54.6001 45.0001 56.3001 46.0001 57.9001ZM40.2001 33.8001C43.0001 33.2001 45.9001 32.7001 49.0001 32.3001C48.0001 33.9001 47.0001 35.5001 46.0001 37.2001C45.0001 38.9001 44.1001 40.5001 43.3001 42.2001C42.0001 39.3001 41.0001 36.5001 40.2001 33.8001ZM45.7001 47.5001C47.0001 44.8001 48.4001 42.1001 50.0001 39.4001C51.5001 36.8001 53.2001 34.2001 54.9001 31.6001C57.9001 31.4001 60.9001 31.3001 64.0001 31.3001C67.2001 31.3001 70.2001 31.4001 73.1001 31.6001C74.9001 34.2001 76.5001 36.8001 78.0001 39.4001C79.6001 42.1001 81.0001 44.8001 82.3001 47.5001C81.0001 50.2001 79.6001 52.9001 78.0001 55.6001C76.5001 58.2001 74.8001 60.8001 73.1001 63.4001C70.1001 63.6001 67.1001 63.7001 64.0001 63.7001C60.8001 63.7001 57.8001 63.6001 54.9001 63.4001C53.1001 60.8001 51.5001 58.2001 50.0001 55.6001C48.4001 52.9001 47.0001 50.2001 45.7001 47.5001ZM84.8001 42.1001L82.1001 37.1001C81.1001 35.4001 80.2001 33.8001 79.1001 32.2001C82.2001 32.6001 85.1001 33.1001 87.9001 33.7001C87.0001 36.5001 86.0001 39.3001 84.8001 42.1001ZM84.8001 52.9001C86.0001 55.7001 87.0001 58.5001 87.9001 61.2001C85.1001 61.8001 82.2001 62.3001 79.1001 62.7001C80.1001 61.1001 81.1001 59.5001 82.1001 57.8001C83.0001 56.3001 83.9001 54.6001 84.8001 52.9001ZM87.1001 87.6001C86.3001 88.1001 85.3001 88.3001 84.2001 88.3001C79.3001 88.3001 73.2001 84.3001 67.2001 78.3001C70.1001 75.2001 72.9001 71.7001 75.7001 67.8001C80.4001 67.4001 84.9001 66.7001 89.1001 65.7001C89.6001 67.5001 89.9001 69.3001 90.2001 71.1001C91.6001 79.6001 90.5001 85.7001 87.1001 87.6001ZM92.3001 34.9001C103.5 38.1001 110.2 43.0001 110.2 47.5001C110.2 51.4001 105.6 55.3001 97.5001 58.4001C95.9001 59.0001 94.1001 59.6001 92.3001 60.1001C91.0001 56.0001 89.4001 51.8001 87.4001 47.5001C89.4001 43.2001 91.1001 39.0001 92.3001 34.9001ZM84.3001 6.7001C85.4001 6.7001 86.3001 6.9001 87.2001 7.4001C90.5001 9.3001 91.7001 15.3001 90.3001 23.9001C90.0001 25.6001 89.6001 27.4001 89.2001 29.3001C85.0001 28.4001 80.5001 27.7001 75.8001 27.2001C73.1001 23.3001 70.2001 19.8001 67.3001 16.7001C73.3001 10.8001 79.4001 6.7001 84.3001 6.7001ZM69.6001 26.8001C67.8001 26.7001 65.9001 26.7001 64.0001 26.7001C62.1001 26.7001 60.2001 26.7001 58.4001 26.8001C60.2001 24.4001 62.1001 22.2001 64.0001 20.1001C65.9001 22.2001 67.8001 24.5001 69.6001 26.8001ZM40.9001 7.4001C41.7001 6.9001 42.7001 6.7001 43.8001 6.7001C48.7001 6.7001 54.8001 10.7001 60.8001 16.7001C57.9001 19.8001 55.1001 23.3001 52.3001 27.2001C47.6001 27.6001 43.1001 28.3001 38.9001 29.3001C38.4001 27.5001 38.1001 25.7001 37.8001 23.9001C36.4001 15.4001 37.5001 9.4001 40.9001 7.4001ZM35.7001 60.1001C24.5001 56.9001 17.8001 52.0001 17.8001 47.5001C17.8001 43.6001 22.4001 39.7001 30.5001 36.6001C32.1001 36.0001 33.9001 35.4001 35.7001 34.9001C37.0001 39.0001 38.6001 43.2001 40.6001 47.5001C38.6001 51.8001 36.9001 56.1001 35.7001 60.1001ZM37.8001 71.1001C38.1001 69.4001 38.5001 67.6001 38.9001 65.7001C43.1001 66.6001 47.6001 67.3001 52.3001 67.8001C55.0001 71.7001 57.9001 75.2001 60.8001 78.3001C54.8001 84.2001 48.7001 88.3001 43.8001 88.3001C42.7001 88.3001 41.8001 88.1001 40.9001 87.6001C37.5001 85.7001 36.4001 79.6001 37.8001 71.1001Z" fill="#61DAFB"/>
<path d="M36.1009 123V108.455H42.1094C43.1984 108.455 44.1383 108.651 44.929 109.044C45.7244 109.432 46.3376 109.991 46.7685 110.72C47.1993 111.445 47.4148 112.304 47.4148 113.298C47.4148 114.307 47.1946 115.164 46.7543 115.869C46.3139 116.57 45.6889 117.105 44.8793 117.474C44.0696 117.839 43.1108 118.021 42.0028 118.021H38.2031V115.251H41.3494C41.8797 115.251 42.3224 115.183 42.6776 115.045C43.0374 114.903 43.3097 114.69 43.4943 114.406C43.679 114.117 43.7713 113.748 43.7713 113.298C43.7713 112.848 43.679 112.477 43.4943 112.183C43.3097 111.885 43.0374 111.662 42.6776 111.516C42.3177 111.364 41.875 111.288 41.3494 111.288H39.6165V123H36.1009ZM44.2898 116.352L47.9119 123H44.0767L40.5256 116.352H44.2898ZM54.2276 123.206C53.0865 123.206 52.1017 122.981 51.2731 122.531C50.4492 122.077 49.8147 121.43 49.3697 120.592C48.9293 119.75 48.7092 118.748 48.7092 117.588C48.7092 116.461 48.9317 115.476 49.3768 114.634C49.8219 113.786 50.4492 113.128 51.2589 112.659C52.0685 112.186 53.0226 111.949 54.1211 111.949C54.8976 111.949 55.6078 112.07 56.2518 112.311C56.8957 112.553 57.4521 112.91 57.9208 113.384C58.3896 113.857 58.7541 114.442 59.0146 115.138C59.275 115.829 59.4052 116.622 59.4052 117.517V118.384H49.9237V116.366H56.1737C56.1689 115.997 56.0813 115.668 55.9109 115.379C55.7404 115.09 55.506 114.866 55.2077 114.705C54.9142 114.539 54.5756 114.456 54.1921 114.456C53.8039 114.456 53.4558 114.544 53.1481 114.719C52.8403 114.889 52.5965 115.124 52.4165 115.422C52.2366 115.715 52.1419 116.049 52.1325 116.423V118.476C52.1325 118.921 52.2201 119.312 52.3952 119.648C52.5704 119.979 52.819 120.237 53.141 120.422C53.4629 120.607 53.8465 120.699 54.2915 120.699C54.5993 120.699 54.8787 120.656 55.1296 120.571C55.3806 120.486 55.596 120.36 55.7759 120.195C55.9558 120.029 56.0908 119.825 56.1808 119.584L59.3697 119.676C59.2371 120.391 58.9459 121.014 58.4961 121.544C58.051 122.07 57.4663 122.479 56.7418 122.773C56.0174 123.062 55.1793 123.206 54.2276 123.206ZM64.2543 123.185C63.5582 123.185 62.9403 123.069 62.4006 122.837C61.8655 122.6 61.4418 122.245 61.1293 121.771C60.8215 121.293 60.6676 120.694 60.6676 119.974C60.6676 119.368 60.7741 118.857 60.9872 118.44C61.2003 118.024 61.4938 117.685 61.8679 117.425C62.242 117.164 62.6728 116.968 63.1605 116.835C63.6482 116.698 64.169 116.606 64.723 116.558C65.3433 116.501 65.8428 116.442 66.2216 116.381C66.6004 116.314 66.875 116.222 67.0455 116.104C67.2206 115.981 67.3082 115.808 67.3082 115.585V115.55C67.3082 115.185 67.1828 114.903 66.9318 114.705C66.6809 114.506 66.3423 114.406 65.9162 114.406C65.4569 114.406 65.0876 114.506 64.8082 114.705C64.5289 114.903 64.3513 115.178 64.2756 115.528L61.0724 115.415C61.1671 114.752 61.411 114.16 61.804 113.639C62.2017 113.114 62.7462 112.702 63.4375 112.403C64.1335 112.1 64.9692 111.949 65.9446 111.949C66.6406 111.949 67.2822 112.032 67.8693 112.197C68.4564 112.358 68.9678 112.595 69.4034 112.908C69.839 113.215 70.1752 113.594 70.4119 114.044C70.6534 114.494 70.7741 115.008 70.7741 115.585V123H67.5071V121.48H67.4219C67.2277 121.849 66.9792 122.162 66.6761 122.418C66.3778 122.673 66.0251 122.865 65.6179 122.993C65.2154 123.121 64.7609 123.185 64.2543 123.185ZM65.3267 120.912C65.7008 120.912 66.0369 120.836 66.3352 120.685C66.6383 120.533 66.8797 120.325 67.0597 120.06C67.2396 119.79 67.3295 119.477 67.3295 119.122V118.085C67.2301 118.137 67.1094 118.185 66.9673 118.227C66.83 118.27 66.6785 118.31 66.5128 118.348C66.3471 118.386 66.1766 118.419 66.0014 118.447C65.8262 118.476 65.6581 118.502 65.4972 118.526C65.1705 118.578 64.8911 118.658 64.6591 118.767C64.4318 118.876 64.2566 119.018 64.1335 119.193C64.0152 119.364 63.956 119.567 63.956 119.804C63.956 120.164 64.0838 120.438 64.3395 120.628C64.5999 120.817 64.929 120.912 65.3267 120.912ZM77.9901 123.206C76.8395 123.206 75.8523 122.969 75.0284 122.496C74.2093 122.022 73.5795 121.364 73.1392 120.521C72.6989 119.674 72.4787 118.694 72.4787 117.581C72.4787 116.464 72.6989 115.483 73.1392 114.641C73.5843 113.793 74.2164 113.133 75.0355 112.659C75.8594 112.186 76.8419 111.949 77.983 111.949C78.9915 111.949 79.8698 112.131 80.6179 112.496C81.3707 112.86 81.9579 113.376 82.3793 114.044C82.8054 114.707 83.0303 115.486 83.054 116.381H79.8082C79.742 115.822 79.5526 115.384 79.2401 115.067C78.9323 114.75 78.5298 114.591 78.0327 114.591C77.6302 114.591 77.2775 114.705 76.9744 114.932C76.6714 115.154 76.4347 115.486 76.2642 115.926C76.0985 116.362 76.0156 116.902 76.0156 117.545C76.0156 118.189 76.0985 118.734 76.2642 119.179C76.4347 119.619 76.6714 119.953 76.9744 120.18C77.2775 120.403 77.6302 120.514 78.0327 120.514C78.3546 120.514 78.6387 120.446 78.8849 120.308C79.1359 120.171 79.3419 119.97 79.5028 119.705C79.6638 119.435 79.7656 119.108 79.8082 118.724H83.054C83.0208 119.624 82.7959 120.41 82.3793 121.082C81.9673 121.755 81.3873 122.278 80.6392 122.652C79.8958 123.021 79.0128 123.206 77.9901 123.206ZM90.989 112.091V114.648H84.1069V112.091H90.989ZM85.5487 109.477H89.0217V119.57C89.0217 119.783 89.0548 119.955 89.1211 120.088C89.1921 120.216 89.2939 120.308 89.4265 120.365C89.5591 120.417 89.7177 120.443 89.9023 120.443C90.0349 120.443 90.1746 120.431 90.3214 120.408C90.4729 120.379 90.5865 120.356 90.6623 120.337L91.1879 122.844C91.0221 122.891 90.7878 122.95 90.4847 123.021C90.1864 123.092 89.829 123.137 89.4123 123.156C88.5979 123.194 87.8995 123.099 87.3171 122.872C86.7395 122.64 86.2968 122.28 85.989 121.793C85.686 121.305 85.5392 120.692 85.5487 119.953V109.477Z" fill="#61DAFB"/>
</svg>
